# xmcd CD database file
#
# Track frame offsets:
#	183
#	12375
#	25578
#	39975
#	51845
#	66368
#	78940
#	91260
#	105758
#	117788
#	131540
#	143198
#	156573
#	167283
#
# Disc length: 2420 seconds
#
# Revision: 0
# Processed by: cddbd v1.4PL0 Copyright (c) Steve Scherf et al.
# Submitted via: CDex 1.40Beta9
#
DISCID=a509720e
DTITLE=Dolly Parton - De hits van
DYEAR=1900
DGENRE=Country
TTITLE0=Jolene
TTITLE1=I will always love you
TTITLE2=Lonely comein' down
TTITLE3=It's my time
TTITLE4=Harper Valley PTA
TTITLE5=Mama say a prayer
TTITLE6=D.I.V.O.R.C.E.
TTITLE7=We used to
TTITLE8=Bobby's arms
TTITLE9=The seeker
TTITLE10=Hold me
TTITLE11=Here you come again
TTITLE12=Lovin' you
TTITLE13=Sweet music man
EXTD=ID3G: 2
EXTT0=
EXTT1=
EXTT2=
EXTT3=
EXTT4=
EXTT5=
EXTT6=
EXTT7=
EXTT8=
EXTT9=
EXTT10=
EXTT11=
EXTT12=
EXTT13=
PLAYORDER=
